<svg xmlns="http://www.w3.org/2000/svg" width="36.253" height="36.258" viewBox="0 0 36.253 36.258">
  <path id="bolt-slash" d="M35.81,33.674l-9.542-9.542,3.18-5.181a4.394,4.394,0,0,0-3.634-6.861l-5.79,0,1.82-7.9A3.253,3.253,0,0,0,20.237.263,2.934,2.934,0,0,0,16.5,1.511L11.613,9.476,2.579.443A1.51,1.51,0,0,0,.443,2.579L33.674,35.81a1.51,1.51,0,0,0,2.136-2.136ZM18.954,3.289c-.008.044-.02.094-.035.15l-2.266,9.818a1.512,1.512,0,0,0,1.471,1.85l7.687.006a1.342,1.342,0,0,1,1.213.73,1.382,1.382,0,0,1-.115,1.471l-2.84,4.624L13.808,11.675,18.953,3.29Zm3.559,26.958-2.764,4.5a3.116,3.116,0,0,1-2.566,1.511,2.764,2.764,0,0,1-1.168-.263,3.252,3.252,0,0,1-1.607-3.927l1.548-6.728a1.511,1.511,0,0,1,2.944.678l-1.569,6.8a1.456,1.456,0,0,0-.035.148l2.642-4.305a1.51,1.51,0,1,1,2.574,1.582Zm-7.408-6.072H10.441a4.395,4.395,0,0,1-3.636-6.862l.911-1.486a1.511,1.511,0,0,1,2.575,1.582l-.947,1.544a1.385,1.385,0,0,0-.115,1.473,1.34,1.34,0,0,0,1.213.73h4.665a1.511,1.511,0,0,1,0,3.021Z" transform="translate(0 0)"/>
</svg>
