<svg xmlns="http://www.w3.org/2000/svg" xmlns:xlink="http://www.w3.org/1999/xlink" width="218.8" height="243.2" viewBox="0 0 218.8 243.2">
  <defs>
    <linearGradient id="linear-gradient" x1="0.452" y1="1.58" x2="0.567" y2="-0.112" gradientUnits="objectBoundingBox">
      <stop offset="0" stop-color="#fa8300"/>
      <stop offset="1" stop-color="#f9e800"/>
    </linearGradient>
    <clipPath id="clip-path">
      <rect id="Rectangle_52467" data-name="Rectangle 52467" width="142" height="158" transform="translate(0.105 0.143)" fill="none"/>
    </clipPath>
  </defs>
  <g id="Group_93181" data-name="Group 93181" transform="translate(-609.8 -125)">
    <g id="Group_93120" data-name="Group 93120" transform="translate(648.895 124.857)">
      <circle id="Ellipse_23" data-name="Ellipse 23" cx="54" cy="54" r="54" transform="translate(17.105 33.143)" fill="url(#linear-gradient)"/>
      <g id="Group_93119" data-name="Group 93119">
        <g id="Group_93118" data-name="Group 93118" clip-path="url(#clip-path)">
          <path id="Path_104700" data-name="Path 104700" d="M71.105,203A71.105,71.105,0,0,1,47.277,64.9a3.092,3.092,0,1,1,2.072,5.826,64.921,64.921,0,1,0,46.357,1.087,3.092,3.092,0,0,1,2.343-5.722A71.105,71.105,0,0,1,71.105,203" transform="translate(0 -44.712)" fill="#020288"/>
          <path id="Path_104701" data-name="Path 104701" d="M15.522,288.173H3.092a3.092,3.092,0,1,1,0-6.183H15.522a3.092,3.092,0,1,1,0,6.183" transform="translate(0 -194.812)" fill="#020288"/>
          <path id="Path_104702" data-name="Path 104702" d="M414.313,288.173H401.883a3.092,3.092,0,0,1,0-6.183h12.431a3.092,3.092,0,1,1,0,6.183" transform="translate(-275.503 -194.812)" fill="#020288"/>
          <path id="Path_104703" data-name="Path 104703" d="M223.091,469.616A3.092,3.092,0,0,1,220,466.524V454.094a3.092,3.092,0,0,1,6.183,0v12.431a3.092,3.092,0,0,1-3.092,3.091" transform="translate(-151.986 -311.573)" fill="#020288"/>
          <path id="Path_104704" data-name="Path 104704" d="M133.862,8.13h48.873l-22.3,60.052,21.646-.481L136.7,126.417l5.2-42.465-27.332-.071Z" transform="translate(-79.148 -5.617)" fill="#fff" fill-rule="evenodd"/>
          <path id="Path_104705" data-name="Path 104705" d="M129.718,126.444a3.093,3.093,0,0,1-3.07-3.451l4.867-41.576-23.866-.062a3.091,3.091,0,0,1-2.99-3.847L123.613,2.336a3.092,3.092,0,0,1,3-2.336h49.141a3.091,3.091,0,0,1,2.9,4.174l-20.625,55.2,17.085-.38a3.092,3.092,0,0,1,2.551,4.933L132.2,125.194a3.091,3.091,0,0,1-2.484,1.25m-18.1-51.262L135,75.243a3.091,3.091,0,0,1,3.062,3.451l-3.923,33.517,34.792-46.9-15.331.341a3.091,3.091,0,0,1-2.965-4.173L171.3,6.183H129.019Z" transform="translate(-72.239)" fill="#020288"/>
        </g>
      </g>
    </g>
    <path id="Path_105757" data-name="Path 105757" d="M-213.64-9.32v-2.8a9.572,9.572,0,0,1-2.88-.76,8.215,8.215,0,0,1-2.4-1.6,7.776,7.776,0,0,1-1.66-2.32,6.689,6.689,0,0,1-.62-2.88,9.515,9.515,0,0,1,.66-3.62,7.579,7.579,0,0,1,1.9-2.76,8.433,8.433,0,0,1,2.94-1.74,11.426,11.426,0,0,1,3.82-.6,11.173,11.173,0,0,1,3.62.54,9.976,9.976,0,0,1,2.76,1.42,10.172,10.172,0,0,1,2.02,1.98,13.938,13.938,0,0,1,1.4,2.22l-5.48,2.84a4.1,4.1,0,0,0-.58-.96,3.881,3.881,0,0,0-.98-.86,6.174,6.174,0,0,0-1.4-.64,5.952,5.952,0,0,0-1.84-.26,4.954,4.954,0,0,0-2.68.7,2.313,2.313,0,0,0-1.12,2.1,3.208,3.208,0,0,0,.4,1.62,3.139,3.139,0,0,0,1.3,1.18,8.451,8.451,0,0,0,2.34.76,20.913,20.913,0,0,0,3.52.32v6.12Zm2.56,9.76a3.525,3.525,0,0,1-2.66-.9,3.194,3.194,0,0,1-.86-2.3v-.8a3.194,3.194,0,0,1,.86-2.3,3.525,3.525,0,0,1,2.66-.9,3.525,3.525,0,0,1,2.66.9,3.194,3.194,0,0,1,.86,2.3v.8a3.194,3.194,0,0,1-.86,2.3A3.525,3.525,0,0,1-211.08.44Zm31.16,11.72q-5.44,0-8.44-2.34a8,8,0,0,1-3-6.7A8.7,8.7,0,0,1-191.02.7a7.43,7.43,0,0,1,1.24-2.38,15,15,0,0,1,2.48-2.5,33.43,33.43,0,0,1,4.06-2.78l-5.2-6.4v-6.2a21.227,21.227,0,0,1,4.22-1.42,19.719,19.719,0,0,1,4.34-.5q4.64,0,6.8,1.64a6.062,6.062,0,0,1,2.16,5.16,8.062,8.062,0,0,1-1.14,4.3A10.822,10.822,0,0,1-175.6-7l-1,.64a7.21,7.21,0,0,0,1.72.3q.96.06,2.4.06h4.68v4.8l-.8,1.2h-4.28a12.575,12.575,0,0,1-2.1-.16,6.893,6.893,0,0,1-1.82-.58,9.28,9.28,0,0,1-1.8-1.16,17.663,17.663,0,0,1-2-1.94q-1.88,1.2-3.1,2.06a19.917,19.917,0,0,0-1.94,1.52A4.874,4.874,0,0,0-186.66.96a2.426,2.426,0,0,0-.3,1.16v.24a3.127,3.127,0,0,0,1.84,2.74,11.329,11.329,0,0,0,5.52,1.06,11.577,11.577,0,0,0,4.74-1.02,11.57,11.57,0,0,0,3.98-2.9l3,4.72a15.763,15.763,0,0,1-5.44,3.84A16.525,16.525,0,0,1-179.92,12.16Zm-4.68-26.88,4.88,5.76,2.4-1.36q2.4-1.4,2.4-3.04a1.67,1.67,0,0,0-1.1-1.64,10.735,10.735,0,0,0-3.86-.48,20.3,20.3,0,0,0-2.52.16q-1.28.16-2.2.36ZM-139.76,0a10.169,10.169,0,0,1-2.66-.34A6.34,6.34,0,0,1-144.8-1.6,13.777,13.777,0,0,1-152.08,0H-169V-4.8l1.2-1.2h1.8l1-1.72V-29.6h4.8v10.24l-.48,4.68.32.16A12.71,12.71,0,0,1-156-17.58a13.514,13.514,0,0,1,5.12-.94q4.72,0,7.08,2.58a10.245,10.245,0,0,1,2.36,7.18,10.979,10.979,0,0,1-.28,2.64,16.444,16.444,0,0,0,1.96.12h1.2v4.8Zm-12.32-6a29.7,29.7,0,0,0,3.18-.14,7.175,7.175,0,0,0,2.04-.48,2.163,2.163,0,0,0,1.1-.94,3.309,3.309,0,0,0,.32-1.56,2.994,2.994,0,0,0-1.12-2.56,6.327,6.327,0,0,0-3.72-.84h-1.2a31.269,31.269,0,0,0-3.16.14,9.358,9.358,0,0,0-2.4.54,6.394,6.394,0,0,0-1.88,1.12,8.819,8.819,0,0,0-1.6,1.88l-1.72,2.6.12.24Zm12.32,1.2,1.2-1.2h4.28l.08-.2a8.436,8.436,0,0,1-2.1-3.22,10.194,10.194,0,0,1-.58-3.3,10.044,10.044,0,0,1,.56-3.38,8.338,8.338,0,0,1,1.6-2.76,7.529,7.529,0,0,1,2.5-1.86A7.533,7.533,0,0,1-129-21.4a7.533,7.533,0,0,1,3.22.68,7.529,7.529,0,0,1,2.5,1.86,8.337,8.337,0,0,1,1.6,2.76,10.044,10.044,0,0,1,.56,3.38,10.194,10.194,0,0,1-.58,3.3,8.436,8.436,0,0,1-2.1,3.22l.08.2h4.44v4.8l-1.2,1.2h-.4a15.794,15.794,0,0,1-4.2-.56,11,11,0,0,1-3.88-2,11,11,0,0,1-3.88,2,15.794,15.794,0,0,1-4.2.56h-2.72ZM-129-6.52a11.009,11.009,0,0,0,3.08-2.42,4.371,4.371,0,0,0,1.04-2.86A3.293,3.293,0,0,0-126-14.44a4.094,4.094,0,0,0-2.76-.96h-.48a4.094,4.094,0,0,0-2.76.96,3.293,3.293,0,0,0-1.12,2.64,4.371,4.371,0,0,0,1.04,2.86A11.009,11.009,0,0,0-129-6.52Zm2.76-18.08a2.34,2.34,0,0,1-1.7-.64,2.739,2.739,0,0,1-.66-2.04,2.739,2.739,0,0,1,.66-2.04,2.34,2.34,0,0,1,1.7-.64h.8a2.34,2.34,0,0,1,1.7.64,2.739,2.739,0,0,1,.66,2.04,2.739,2.739,0,0,1-.66,2.04,2.34,2.34,0,0,1-1.7.64Zm-6.32,0a2.34,2.34,0,0,1-1.7-.64,2.739,2.739,0,0,1-.66-2.04,2.739,2.739,0,0,1,.66-2.04,2.34,2.34,0,0,1,1.7-.64h.8a2.34,2.34,0,0,1,1.7.64,2.739,2.739,0,0,1,.66,2.04,2.739,2.739,0,0,1-.66,2.04,2.34,2.34,0,0,1-1.7.64Zm12.08,19.8,1.2-1.2h1.2q3.2,0,3.2-2.8v-5.72h4.4V-8.8a2.475,2.475,0,0,0,2.8,2.8h1.6v4.8l-1.2,1.2a7.764,7.764,0,0,1-4.86-1.3,6.63,6.63,0,0,1-2.22-4.1h-.24a7.611,7.611,0,0,1-1.92,4.1A5.515,5.515,0,0,1-120.48,0Zm10.56-12.92a2.34,2.34,0,0,1-1.7-.64,2.739,2.739,0,0,1-.66-2.04,2.739,2.739,0,0,1,.66-2.04,2.34,2.34,0,0,1,1.7-.64h.8a2.34,2.34,0,0,1,1.7.64,2.739,2.739,0,0,1,.66,2.04,2.739,2.739,0,0,1-.66,2.04,2.34,2.34,0,0,1-1.7.64Zm-6.32,0a2.34,2.34,0,0,1-1.7-.64,2.739,2.739,0,0,1-.66-2.04,2.739,2.739,0,0,1,.66-2.04,2.34,2.34,0,0,1,1.7-.64h.8a2.34,2.34,0,0,1,1.7.64,2.739,2.739,0,0,1,.66,2.04,2.739,2.739,0,0,1-.66,2.04,2.34,2.34,0,0,1-1.7.64Zm8.96,12.92,1.2-1.2h4.32l.08-.2a7.737,7.737,0,0,1-2.28-5.48,9.465,9.465,0,0,1,.52-3.16A8.751,8.751,0,0,1-102-17.46a7.668,7.668,0,0,1,2.18-1.86,6.515,6.515,0,0,1,2.74-.84l1.2-2.48,6.36,3.04a16.747,16.747,0,0,1,6.88,5.5,13.719,13.719,0,0,1,2.2,7.86v.8L-84.04,0H-88.4a17.579,17.579,0,0,1-4.2-.5,13.076,13.076,0,0,1-3.88-1.66A13.076,13.076,0,0,1-100.36-.5a17.579,17.579,0,0,1-4.2.5h-2.72Zm10.8-1.72a10.116,10.116,0,0,0,2.84-2.26,4.159,4.159,0,0,0,.96-2.7,4.1,4.1,0,0,0-.96-2.86,3.333,3.333,0,0,0-2.6-1.06h-.48a3.333,3.333,0,0,0-2.6,1.06,4.1,4.1,0,0,0-.96,2.86,4.159,4.159,0,0,0,.96,2.7A10.116,10.116,0,0,0-96.48-6.52Zm7.36-6.76a10.771,10.771,0,0,1,.12,1.6A7.737,7.737,0,0,1-91.28-6.2l.08.2h6.76v-.24a7.585,7.585,0,0,0-1.1-4.14,9.025,9.025,0,0,0-3.5-3.02ZM-54.96,9.6a20.521,20.521,0,0,1-5.74-.74A12.188,12.188,0,0,1-65,6.7a9.347,9.347,0,0,1-2.68-3.44,11.034,11.034,0,0,1-.92-4.62,18.994,18.994,0,0,1,.5-4.06A26.118,26.118,0,0,1-66.72-9.8l3.84,1.12A20.588,20.588,0,0,0-64.14-5.2a12.293,12.293,0,0,0-.46,3.04,4.394,4.394,0,0,0,2.12,3.9,10.8,10.8,0,0,0,5.92,1.38h3.2a16.326,16.326,0,0,0,6.54-1.08A4.137,4.137,0,0,0-44.08-1l-6.08-1.04a9.15,9.15,0,0,1-4.82-2.02A5.992,5.992,0,0,1-56.52-8.6a11.322,11.322,0,0,1,.88-4.42,12.525,12.525,0,0,1,2.36-3.7,11.51,11.51,0,0,1,3.46-2.56,9.376,9.376,0,0,1,4.14-.96,8.519,8.519,0,0,1,5.44,1.64,11.838,11.838,0,0,1,3.6,5.4l1.28,3.44a7.97,7.97,0,0,0,1.6,2.94,3.3,3.3,0,0,0,2.4.82h1.2v4.8L-31.36,0a13.055,13.055,0,0,1-3.12-.32,5.3,5.3,0,0,1-2.24-1.16,8.348,8.348,0,0,1-1.76-2.3,27.552,27.552,0,0,1-1.64-3.78L-41.4-11a4.653,4.653,0,0,0-1.9-2.44,5.28,5.28,0,0,0-2.78-.76,7.791,7.791,0,0,0-2.32.36,8.734,8.734,0,0,0-2.08.94,5.354,5.354,0,0,0-1.48,1.34A2.6,2.6,0,0,0-52.52-10q0,1.48,3.32,2.08l4.96.84A4.8,4.8,0,0,1-41-5.34a6.334,6.334,0,0,1,.96,3.74,10.676,10.676,0,0,1-1.02,4.76A9.689,9.689,0,0,1-44,6.68a13.569,13.569,0,0,1-4.68,2.18A24.3,24.3,0,0,1-54.96,9.6Zm12.04-33.04a2.34,2.34,0,0,1-1.7-.64,2.739,2.739,0,0,1-.66-2.04,2.739,2.739,0,0,1,.66-2.04,2.34,2.34,0,0,1,1.7-.64h.8a2.34,2.34,0,0,1,1.7.64,2.739,2.739,0,0,1,.66,2.04,2.739,2.739,0,0,1-.66,2.04,2.34,2.34,0,0,1-1.7.64Zm-6.32,0a2.34,2.34,0,0,1-1.7-.64,2.739,2.739,0,0,1-.66-2.04,2.739,2.739,0,0,1,.66-2.04,2.34,2.34,0,0,1,1.7-.64h.8a2.34,2.34,0,0,1,1.7.64,2.739,2.739,0,0,1,.66,2.04,2.739,2.739,0,0,1-.66,2.04,2.34,2.34,0,0,1-1.7.64ZM-52.2,18.2a2.34,2.34,0,0,1-1.7-.64,2.739,2.739,0,0,1-.66-2.04,2.739,2.739,0,0,1,.66-2.04,2.34,2.34,0,0,1,1.7-.64h.8a2.34,2.34,0,0,1,1.7.64,2.739,2.739,0,0,1,.66,2.04,2.739,2.739,0,0,1-.66,2.04,2.34,2.34,0,0,1-1.7.64Zm-6.32,0a2.34,2.34,0,0,1-1.7-.64,2.739,2.739,0,0,1-.66-2.04,2.739,2.739,0,0,1,.66-2.04,2.34,2.34,0,0,1,1.7-.64h.8a2.34,2.34,0,0,1,1.7.64,2.739,2.739,0,0,1,.66,2.04,2.739,2.739,0,0,1-.66,2.04,2.34,2.34,0,0,1-1.7.64ZM-25.48-2.24A4.9,4.9,0,0,1-27.78-.5a10.7,10.7,0,0,1-3.58.5V-4.8l1.2-1.2A4.087,4.087,0,0,0-28-6.44,3.157,3.157,0,0,0-26.88-8l1.12-2.76a20.013,20.013,0,0,1,1.16-2.4,8.558,8.558,0,0,1,1.52-1.96,6.769,6.769,0,0,1,1.98-1.32,6.3,6.3,0,0,1,2.54-.48,6.287,6.287,0,0,1,5.66,2.96Q-11-11-11-5.76V-4.6l-3.8,5.64Zm2.2-5.56,8.04,2.44v-.4A5.613,5.613,0,0,0-16.4-9.52a3.936,3.936,0,0,0-3.16-1.36,3.686,3.686,0,0,0-2.22.68A4.133,4.133,0,0,0-23.2-8.04ZM-7.2-29.6h4.8V0H-7.2Z" transform="translate(831 350)" fill="#23262f"/>
  </g>
</svg>
