<svg xmlns="http://www.w3.org/2000/svg" width="13.89" height="16.578" viewBox="0 0 13.89 16.578">
  <g id="marker-9" transform="translate(-1.945 0.002)">
    <path id="Path_105755" data-name="Path 105755" d="M10.763,6a2.763,2.763,0,1,0,2.763,2.763A2.763,2.763,0,0,0,10.763,6Zm0,4.144a1.381,1.381,0,1,1,1.381-1.381A1.381,1.381,0,0,1,10.763,10.144Z" transform="translate(-1.873 -1.857)"/>
    <path id="Path_105756" data-name="Path 105756" d="M8.89,16.576a3.641,3.641,0,0,1-2.978-1.52C3.28,11.425,1.945,8.7,1.945,6.943a6.945,6.945,0,1,1,13.89,0c0,1.753-1.335,4.483-3.967,8.113a3.641,3.641,0,0,1-2.978,1.52Zm0-15.07A5.445,5.445,0,0,0,3.451,6.944c0,1.388,1.307,3.956,3.681,7.229a2.172,2.172,0,0,0,3.516,0c2.373-3.273,3.681-5.84,3.681-7.229A5.445,5.445,0,0,0,8.89,1.506Z" transform="translate(0 0)"/>
  </g>
</svg>
